<svg width="38" height="40" viewBox="0 0 38 40" fill="none" xmlns="http://www.w3.org/2000/svg">
<rect x="0.5" y="0.5" width="37" height="39" rx="18.5" stroke="#00AEEF"/>
<g clip-path="url(#clip0_21_457)">
<path d="M13.4114 20.88C13.4457 20.88 13.48 20.88 13.5143 20.88C13.72 20.88 13.8914 20.76 13.9943 20.52C14.0286 20.44 14.8172 18.48 17.2857 18.48H22.2914V19.68C22.2914 19.92 22.3943 20.12 22.6 20.24C22.6686 20.28 22.7372 20.28 22.8057 20.28C22.9429 20.28 23.0457 20.24 23.1486 20.12L26.5429 16.6C26.6457 16.48 26.7143 16.32 26.7143 16.16C26.7143 16 26.6457 15.84 26.5429 15.72L23.1486 12.2C23.0114 12 22.8057 11.96 22.6 12.04C22.4286 12.12 22.2914 12.36 22.2914 12.6V13.72H17.2857C16.1543 13.72 15.2286 14.16 14.5086 15C12.9314 16.88 13 20.2 13 20.32C13 20.6 13.1714 20.84 13.4114 20.88ZM15.2629 15.84C15.7772 15.2 16.4286 14.88 17.2857 14.88H22.8057C23.08 14.88 23.32 14.6 23.32 14.28V13.92L25.4114 16.12L23.32 18.32V17.88C23.32 17.56 23.08 17.28 22.8057 17.28H17.2857C15.8457 17.28 14.8514 17.8 14.2 18.44C14.3372 17.56 14.6457 16.56 15.2629 15.84Z" fill="#00AEEF"/>
<path d="M26.3029 19.12C26.0629 19.08 25.8229 19.2 25.72 19.48C25.72 19.52 24.9314 21.52 22.4286 21.52H17.4229V20.32C17.4229 20.08 17.32 19.88 17.1143 19.76C16.9429 19.68 16.7029 19.72 16.5657 19.88L13.1714 23.4C13.0686 23.52 13 23.68 13 23.88C13 24.08 13.0686 24.2 13.1714 24.32L16.5657 27.84C16.6686 27.96 16.7714 28 16.9086 28C16.9771 28 17.0457 28 17.1143 27.96C17.2857 27.88 17.4229 27.64 17.4229 27.4V26.28H22.4286C23.56 26.28 24.4857 25.84 25.2057 25C26.7829 23.12 26.7143 19.8 26.7143 19.68C26.7143 19.4 26.5429 19.16 26.3029 19.12ZM24.4514 24.16C23.9371 24.8 23.2514 25.08 22.4286 25.08H16.9086C16.6343 25.08 16.3943 25.36 16.3943 25.68V26.04L14.3029 23.84L16.3943 21.64V22.08C16.3943 22.4 16.6343 22.68 16.9086 22.68H22.4286C23.8686 22.68 24.8629 22.16 25.5143 21.52C25.3771 22.44 25.0686 23.44 24.4514 24.16Z" fill="#00AEEF"/>
</g>
<defs>
<clipPath id="clip0_21_457">
<rect width="13.7143" height="16" fill="white" transform="translate(13 12)"/>
</clipPath>
</defs>
</svg>
